<?xml version="1.0" encoding="iso-8859-1"?>
<!-- Generator: Adobe Illustrator 19.0.0, SVG Export Plug-In . SVG Version: 6.00 Build 0)  -->
<svg version="1.1" id="Capa_1" xmlns="http://www.w3.org/2000/svg" xmlns:xlink="http://www.w3.org/1999/xlink" x="0px" y="0px"
	 viewBox="0 0 384 384" style="enable-background:new 0 0 384 384;" xml:space="preserve">
<g>
	<g>
		<path d="M382.192,271.648l-35.832-68.872c-2.76-5.296-8.224-8.616-14.192-8.616h-97.992v-55.504
			c20.048-13.656,33.24-36.704,33.24-62.792C267.416,34.032,233.488,0,191.784,0S116.16,34.032,116.16,75.864
			c0,26.12,13.224,49.192,33.312,62.848v55.448H51.128c-6.016,0-11.52,3.368-14.248,8.728L1.752,271.76
			C0.6,274.008,0,276.504,0,279.032V368c0,8.832,7.168,16,16,16h352c8.832,0,16-7.168,16-16v-88.968
			C384,276.464,383.384,273.928,382.192,271.648z M148.16,75.864C148.16,51.68,167.728,32,191.784,32
			c24.064,0,43.632,19.672,43.632,43.864c0,24.192-19.568,43.864-43.632,43.864C167.728,119.728,148.16,100.048,148.16,75.864z
			 M202.168,150.92v95.968h-20.704v-95.96c3.384,0.464,6.808,0.792,10.312,0.792C195.312,151.728,198.768,151.4,202.168,150.92z
			 M351.992,352h-320v-69.128H32l28.92-56.712h88.544v20.736H139.12c-8.832,0-16,7.168-16,16c0,8.832,7.168,16,16,16h26.344h52.704
			h26.344c8.832,0,16-7.168,16-16c0-8.832-7.168-16-16-16h-10.344V226.16h88.28l29.544,56.784V352z"/>
	</g>
</g>
<g>
	<g>
		<path d="M315.336,299.176h-36.592c-8.832,0-16,7.168-16,16c0,8.832,7.168,16,16,16h36.592c8.832,0,16-7.168,16-16
			C331.336,306.344,324.168,299.176,315.336,299.176z"/>
	</g>
</g>
<g>
</g>
<g>
</g>
<g>
</g>
<g>
</g>
<g>
</g>
<g>
</g>
<g>
</g>
<g>
</g>
<g>
</g>
<g>
</g>
<g>
</g>
<g>
</g>
<g>
</g>
<g>
</g>
<g>
</g>
</svg>
