<?xml version="1.0" encoding="iso-8859-1"?>
<!-- Generator: Adobe Illustrator 19.0.0, SVG Export Plug-In . SVG Version: 6.00 Build 0)  -->
<svg version="1.1" id="Capa_1" xmlns="http://www.w3.org/2000/svg" xmlns:xlink="http://www.w3.org/1999/xlink" x="0px" y="0px"
	 viewBox="0 0 383.942 383.942" style="enable-background:new 0 0 383.942 383.942;" xml:space="preserve">
<g>
	<g>
		<path d="M329.067,30.31c-40.944-40.448-107.608-40.4-148.616,0.064c-30.688,30.328-39.08,75.88-22.336,114.768L28.731,272.918
			c-3.048,3-4.76,7.104-4.76,11.384c0,4.28,1.712,8.376,4.76,11.384l84.696,83.64c3.12,3.08,7.176,4.616,11.24,4.616
			c4.064,0,8.128-1.536,11.24-4.616l33.264-32.832c3.04-3,4.76-7.104,4.76-11.384c0-4.28-1.712-8.384-4.76-11.384l-40.624-40.128
			l9.816-9.688l27.816,27.464c6.232,6.16,16.256,6.16,22.48,0.008l32.36-31.928c3.048-3.008,4.768-7.104,4.768-11.384
			c0-4.28-1.712-8.384-4.76-11.384l-27.36-27.016l20.072-19.824c13.104,5.488,27,8.272,40.856,8.272
			c27.232,0,54.232-10.424,74.472-30.4c19.928-19.688,30.904-45.872,30.904-73.736C359.963,76.142,348.987,49.982,329.067,30.31z
			 M177.419,267.494l-27.8-27.448c-1.2-1.184-2.608-2.192-4.12-2.944c-6.136-3.064-13.528-1.888-18.4,2.928l-32.576,32.168
			c-3.048,3-4.76,7.104-4.76,11.384c0,4.28,1.712,8.376,4.76,11.384l40.624,40.128l-10.496,10.352l-61.92-61.16L175.675,172.75
			c1.512,1.704,3.088,3.352,4.704,4.952c1.704,1.68,3.464,3.304,5.272,4.864l-26.016,25.696c-3.048,3.008-4.76,7.104-4.76,11.384
			c0,4.28,1.712,8.376,4.76,11.384l27.352,27.008L177.419,267.494z M306.579,154.942c-23.352,23.056-59.624,27.848-88.224,11.664
			c-5.672-3.208-10.888-7.144-15.504-11.696c-4.368-4.296-8.256-9.248-11.568-14.704c-16.456-28.232-11.68-64.024,11.656-87.08
			c14.312-14.128,33.104-21.192,51.88-21.192c18.752,0,37.496,7.04,51.76,21.128c13.792,13.616,21.384,31.688,21.392,50.912
			C327.971,123.214,320.379,141.31,306.579,154.942z"/>
	</g>
</g>
<g>
	<g>
		<path d="M292.203,66.766c-20.664-20.416-54.272-20.4-74.92,0.008c-10.056,9.944-15.592,23.176-15.592,37.264
			s5.536,27.32,15.6,37.272c10.336,10.2,23.896,15.296,37.464,15.296c13.568,0.008,27.128-5.096,37.448-15.296
			c10.088-9.96,15.624-23.208,15.624-37.312C307.819,89.91,302.267,76.686,292.203,66.766z M269.723,118.558
			c-8.264,8.144-21.688,8.136-29.936,0c-3.928-3.888-6.096-9.04-6.096-14.512s2.168-10.624,6.088-14.504
			c4.128-4.08,9.544-6.112,14.968-6.112c5.424,0,10.848,2.04,14.984,6.128c3.928,3.872,6.096,9.008,6.104,14.472
			C275.835,109.502,273.667,114.662,269.723,118.558z"/>
	</g>
</g>
<g>
</g>
<g>
</g>
<g>
</g>
<g>
</g>
<g>
</g>
<g>
</g>
<g>
</g>
<g>
</g>
<g>
</g>
<g>
</g>
<g>
</g>
<g>
</g>
<g>
</g>
<g>
</g>
<g>
</g>
</svg>
