<?xml version="1.0" standalone="no"?>
<!DOCTYPE svg PUBLIC "-//W3C//DTD SVG 20010904//EN"
 "http://www.w3.org/TR/2001/REC-SVG-20010904/DTD/svg10.dtd">
<svg version="1.0" xmlns="http://www.w3.org/2000/svg"
 width="351.000000pt" height="351.000000pt" viewBox="0 0 351.000000 351.000000"
 preserveAspectRatio="xMidYMid meet">
<metadata>
Created by potrace 1.11, written by Peter Selinger 2001-2013
</metadata>
<g transform="translate(0.000000,351.000000) scale(0.100000,-0.100000)"
fill="#000000" stroke="none">
<path d="M680 3354 c-90 -19 -214 -83 -286 -148 -270 -242 -292 -648 -51 -912
52 -58 108 -100 192 -146 l50 -27 0 -111 1 -110 -254 0 c-268 0 -298 -5 -322
-49 -7 -13 -10 -295 -10 -835 l0 -815 24 -28 24 -28 1689 -3 c1255 -2 1695 1
1716 9 60 25 57 -21 57 871 l0 817 -24 28 -24 28 -1186 3 c-1040 2 -1186 4
-1187 17 0 8 -1 35 -1 60 0 133 3 165 13 165 26 0 138 79 196 139 149 152 213
369 170 577 -74 350 -429 575 -787 498z"/>
</g>
</svg>
